<?xml version="1.0" encoding="UTF-8"?>
<svg width="102px" height="31px" viewBox="0 0 102 31" version="1.1" xmlns="http://www.w3.org/2000/svg" xmlns:xlink="http://www.w3.org/1999/xlink">
    <!-- Generator: Sketch 49.3 (51167) - http://www.bohemiancoding.com/sketch -->
    <title>Group 48</title>
    <desc>Created with Sketch.</desc>
    <defs></defs>
    <g id="Labstep-3.0---Sprints" stroke="none" stroke-width="1" fill="none" fill-rule="evenodd">
        <g id="Group-48" fill-rule="nonzero">
            <g id="Copy-of-LOGOmaster">
                <polygon id="Shape" fill="#002667" points="13.3430443 30.8941082 0.00547509695 23.1936756 0.00547509695 7.79281033 13.3429278 0.0926106825 26.6804969 7.79281033 26.6804969 23.1936756"></polygon>
                <polygon id="Shape" fill="#002667" points="28.3127748 23.2753361 28.3127748 8.07693292 31.1304693 8.07693292 31.1304693 20.5811224 35.7783607 20.5811224 35.7783607 23.2753361"></polygon>
                <path d="M45.7640056,23.2753361 L45.7640056,21.7946136 C44.6739953,23.0286072 43.5838686,23.5424509 41.9798981,23.5424509 C38.6480104,23.5424509 36.2418801,21.0543106 36.2418801,17.6195609 C36.2418801,14.1440393 38.6687459,11.614195 42.0414056,11.614195 C43.686847,11.614195 44.8179787,12.1490072 45.7640056,13.4035033 L45.7640056,11.8816593 L48.2721824,11.8816593 L48.2721824,23.2753361 L45.7640056,23.2753361 Z M42.3294889,14.1233038 C40.3756947,14.1233038 38.9976012,15.6039098 38.9976012,17.6813014 C38.9976012,19.6763335 40.3755783,21.0335751 42.3704939,21.0335751 C44.4476525,21.0335751 45.6814132,19.5526196 45.6814132,17.6606824 C45.6815297,15.5835238 44.2832831,14.1233038 42.3294889,14.1233038 Z" id="Shape" fill="#002667"></path>
                <path d="M56.1863768,23.5424509 C54.4996975,23.5424509 53.4106192,23.0696122 52.2387154,21.8151161 L52.2387154,23.2753361 L49.7294902,23.2753361 L49.7294902,8.07693292 L52.4647088,8.07693292 L52.4647088,12.9306646 C53.5134811,11.8816593 54.5203165,11.4702116 56.001039,11.4702116 C59.2709533,11.4702116 61.7390571,14.0616798 61.7390571,17.496313 C61.7391736,20.9307132 59.3945507,23.5424509 56.1863768,23.5424509 Z M55.6104432,13.9794369 C53.698586,13.9794369 52.3003394,15.4395404 52.3003394,17.496313 C52.3003394,19.5732386 53.698586,21.0335751 55.6720672,21.0335751 C57.6258614,21.0335751 58.983103,19.5939741 58.983103,17.5165825 C58.983103,15.4807784 57.5641209,13.9794369 55.6104432,13.9794369 Z" id="Shape" fill="#002667"></path>
                <path d="M66.515089,23.5424509 C64.2530585,23.5424509 62.6282361,22.3085738 62.3401528,19.6555981 L65.0962234,19.6555981 C65.3633383,20.6224769 65.816024,21.0336916 66.6179509,21.0336916 C67.3171324,21.0336916 67.8520611,20.5605034 67.8520611,19.9231789 C67.8520611,19.2648858 67.7489662,19.0796645 65.9188859,18.4630753 C63.6565059,17.7019204 62.7516005,16.755777 62.7516005,15.0899497 C62.7516005,13.136272 64.4175444,11.6143115 66.5355915,11.6143115 C68.4686502,11.6143115 70.1759485,12.8894266 70.2785774,15.0283257 L67.6050993,15.0283257 C67.4818513,14.4320061 67.1116416,14.1234203 66.5355915,14.1234203 C65.9393884,14.1234203 65.4868192,14.534635 65.4868192,15.0899497 C65.4868192,15.6865022 65.5485596,15.7276237 67.4201109,16.3241763 C69.8057388,17.0644793 70.5872797,17.9691517 70.5872797,19.6557145 C70.5872797,21.8357351 68.7982044,23.5424509 66.515089,23.5424509 Z" id="Shape" fill="#002667"></path>
                <polygon id="Shape" fill="#002667" points="75.0921196 14.3701491 75.0921196 23.2752196 72.3569009 23.2752196 72.3569009 14.3701491 71.0200454 14.3701491 71.0200454 11.8816593 72.3569009 11.8816593 72.3569009 8.07693292 75.0921196 8.07693292 75.0921196 11.8816593 76.7376775 11.8816593 76.7376775 14.3701491"></polygon>
                <path d="M88.6584779,18.7919306 L79.8354174,18.7919306 C80.1645057,20.1697912 81.3571449,21.0335751 82.9820838,21.0335751 C84.113332,21.0335751 84.792011,20.7249893 85.4913091,19.9023269 L88.473373,19.9023269 C87.7125675,22.2469498 85.3472092,23.5423344 83.0438242,23.5423344 C79.5683026,23.5423344 76.8739724,20.9513322 76.8739724,17.6194444 C76.8739724,14.2672872 79.5270646,11.6140785 82.8793383,11.6140785 C86.27285,11.6140785 88.7612233,14.2054303 88.7612233,17.7430418 C88.7611069,18.1542566 88.7403714,18.4011019 88.6584779,18.7919306 Z M82.9203433,14.1233038 C81.2956374,14.1233038 80.1851247,14.9254638 79.753058,16.3856838 L86.0670097,16.3856838 C85.7175354,14.9254638 84.6069062,14.1233038 82.9203433,14.1233038 Z" id="Shape" fill="#002667"></path>
                <path d="M96.0079219,23.5424509 C94.6090929,23.5424509 93.5397016,23.1312362 92.5115483,22.2058283 L92.5115483,27.0800625 L89.7762131,27.0800625 L89.7762131,11.8816593 L92.2853219,11.8816593 L92.2853219,13.2185149 C93.1697248,12.1901286 94.4859614,11.6143115 96.0283079,11.6143115 C99.3188411,11.6143115 101.704702,14.1028013 101.704702,17.537318 C101.704586,20.9923371 99.2983387,23.5424509 96.0079219,23.5424509 Z M95.6787171,14.1233038 C93.7867799,14.1233038 92.3468294,15.6039098 92.3468294,17.557937 C92.3468294,19.5526196 93.7866634,21.0335751 95.7198386,21.0335751 C97.5297658,21.0335751 98.9489809,19.5321171 98.9489809,17.5990584 C98.9489809,15.6246453 97.5298823,14.1233038 95.6787171,14.1233038 Z" id="Shape" fill="#002667"></path>
                <polygon id="Shape" fill="#C7F1FF" points="7.90312771 12.3524012 2.46321117 9.21179237 13.3428113 2.93034178 18.7828443 6.07118357"></polygon>
                <polygon id="Shape" fill="#72DCFF" points="7.90301122 18.6340848 7.90301122 12.3526342 18.7828443 6.07095059 18.7828443 12.3526342"></polygon>
                <polygon id="Shape" fill="#C7F1FF" points="13.3428113 21.7745771 7.90301122 18.6340848 18.7826113 12.3524012 24.2227608 15.493243"></polygon>
                <polygon id="Shape" fill="#72DCFF" points="13.3428113 28.0562606 13.3428113 21.7749265 24.2225279 15.493243 24.2227608 21.7749265"></polygon>
                <polygon id="Shape" fill="#1162A1" points="13.3430443 21.7745771 7.90312771 18.6338518 7.90312771 12.3526342 2.46332766 9.21179237 2.46332766 15.493243 2.46321117 15.493243 2.46321117 21.7745771 2.46321117 21.7745771 2.46321117 21.7749265 7.21699322 24.519115 13.3430443 28.0562606"></polygon>
            </g>
        </g>
    </g>
</svg>